<?xml version="1.0" encoding="utf-8"?>
<!-- Generator: Adobe Illustrator 27.5.0, SVG Export Plug-In . SVG Version: 6.00 Build 0)  -->
<svg version="1.1" xmlns="http://www.w3.org/2000/svg" xmlns:xlink="http://www.w3.org/1999/xlink" x="0px" y="0px"
	 viewBox="0 0 750 500" style="enable-background:new 0 0 750 500;" xml:space="preserve">
<g id="BACKGROUND">
	<rect style="fill:#FFFFFF;" width="750" height="500"/>
</g>
<g id="OBJECTS">
	<g>
		<path d="M567.171,140.669c2.583-0.825,4.778-3.8,4.122-6.388L571,133.083c5.381,1.297,5.942-4.497,6.592-8.522l1.829,0.879
			c1.63,0.804,3.844,0.529,5.226-0.594c1.361-1.071,2.024-3.123,1.593-4.7l-0.553-2.022l2.279-0.373
			c3.605-0.53,6.694-4.614,6.133-8.184c0,0-0.293-1.97-0.293-1.97c2.278-0.659,5.111-1.358,7.042-2.324
			c2.399-1.179,4.597-3.482,3.644-6.122c-0.429-1.068-1.632-2.273-2.926-3.227c-2.642-1.886-6.076-2.851-9.655-3.262
			c-18.734-1.646-37.578,4.815-56.362,2.895c1.721,5.315,3.601,10.802,7.535,14.756c1.059,1.064,2.252,1.999,3.217,3.149
			c1.444,1.721,2.311,3.839,3.266,5.873c3.195,6.8,7.622,13.018,13.002,18.262c1.089,1.061,2.078,2.185,3.005,3.35
			C566.123,140.934,566.663,140.843,567.171,140.669z"/>
		<path d="M726.226,228.404c-4.852-11.827-13.762-21.432-21.053-31.932c-1.037-1.494-2.055-3.03-2.654-4.747
			c-0.587-1.684-0.752-3.481-1.106-5.228c-1.333-6.576-5.526-12.521-11.274-15.983c1.767-2.597,0.485-7.667-1.449-10.143
			c-0.985-1.26-2.374-2.208-3.129-3.618c-0.592-1.107-0.733-2.391-1.047-3.607c-0.549-2.129-1.661-4.11-3.193-5.688
			c-1.255-1.293-2.776-2.31-3.993-3.639c-4.244-4.636-4.408-12.556-9.791-15.8c-1.505-0.907-3.28-1.329-4.704-2.359
			c-2.523-1.825-3.434-5.134-5.408-7.542c-2.839-3.462-7.598-4.762-10.784-7.907c-3.086-3.046-4.593-7.713-8.392-9.804
			c-1.102-0.606-2.339-0.953-3.4-1.628c-1.182-0.751-2.078-1.863-3.013-2.905c-4.33-4.822-9.947-8.477-16.109-10.484
			c-2.532-0.825-5.317-1.476-7.07-3.481c-0.943-1.078-1.481-2.444-2.242-3.657c-1.605-2.557-4.145-4.357-6.618-6.089
			c-6.965-4.877-13.96-9.773-21.56-13.587c-4.221-2.118-8.704-3.916-13.414-4.263c-8.216-0.605-16.344,3.403-21.953,9.438
			c-5.609,6.035-9.872,15.45-11.75,23.472c-8.265,3.193-15.51,8.506-22.645,13.758c-4.518,3.325-9.255,6.929-11.29,12.156
			c3.714-0.813,6.775-3.331,9.883-5.52c8.577-6.04,18.287-9.511,28.376-12.384c0.019,0.059,0.039,0.118,0.058,0.178
			c9.307-0.641,18.525-2.636,27.62-4.529c13.183-2.373,38.212-8.359,45.968,6.344c1.639,3.737-0.157,8.146-3.174,10.558
			c-2.049,1.702-4.685,2.652-7.163,3.325c-0.217,2.388-1.206,4.619-2.655,6.382c-1.501,1.843-3.551,3.252-5.847,3.894
			c-0.18,2.515-1.452,4.848-3.51,6.309c-2.104,1.457-4.72,1.754-7.034,1.034c-1.005,3.181-3.206,6.475-6.652,6.397
			c-0.294,3.49-3.838,6.454-7.269,6.095c5.495,7.042,8.458,15.732,12.91,23.702c3.074,5.503,5.555,11.39,9.443,16.351
			c1.832,2.337,3.96,4.442,6.318,6.248c0.469,0.359,0.947,0.707,1.425,1.054c0.892,0.648,1.784,1.296,2.675,1.945
			c4.433,3.223,9.389,6.601,14.851,6.155c0.507-0.041,1.025-0.115,1.517,0.012c0.49,0.126,0.907,0.44,1.323,0.728
			c1.768,1.225,3.771,2.109,5.867,2.59c-0.315,1.79-2.738,2.811-4.295,3.748c-1.024,0.616-2.205,0.936-3.223,1.562
			c-1.428,0.878-2.447,2.311-3.115,3.848c-2.567,5.909-0.137,12.951,3.945,17.935c2.267,2.768,5.222,5.224,8.755,5.788
			c-5.317-3.685-8.771-9.93-9.066-16.393c-0.094-2.054,0.17-4.26,1.486-5.84c-0.554,4.784,1.937,9.786,6.089,12.227
			c-2.75-3.274-3.807-7.899-2.753-12.042c0.24-0.944,0.673-1.961,1.574-2.333c1.197-0.494,2.588,0.503,2.999,1.731
			c0.411,1.228,0.127,2.568-0.161,3.831c1.922-1.134,1.78-3.899,1.516-6.115s0.004-5.092,2.131-5.766
			c0.664-0.21,1.38-0.138,2.072-0.063c3.105,0.335,6.211,0.669,9.317,1.004c-12.696-14.205-24.939-28.814-36.703-43.793
			c-3.679-5.064-8.242-9.508-10.034-15.747c-2.395-9.688,4.016-18.357,10.081-25.151c-5.021,7.03-10.868,15.651-8.197,24.619
			c0.851,2.737,2.558,5.182,4.411,7.568c3.899,4.702,7.687,9.479,11.61,14.17c10.048,12.031,21.472,25.543,32.718,38.911
			c13.793,14.027,31.809,24.074,50.705,29.543c1.123-1.097-0.218-2.901-1.47-3.849c-7.619-5.77-15.238-11.54-22.857-17.31
			c6.167,3.975,12.49,7.71,18.949,11.191c1.275,0.687,2.893,1.353,4.081,0.525c1.555-1.084,0.844-3.514-0.124-5.144
			c-1.803-3.037-3.991-5.839-6.465-8.36c0.565,1.029,1.264,1.975,2.172,2.79c-6.478-4.102-4.607-15.074-11.929-18.167
			c0,0-0.083-0.028-0.19-0.065c0.362,0.283,0.722,0.569,1.084,0.852c-16.813-7.605-32.827-22.06-42.07-38.038
			c3.353,3.428,6.619,6.855,9.963,10.191c9.516,9.579,19.87,18.256,30.502,26.586c0.582-4.508-1.535-9.26-5.201-11.766
			c-1.045-0.658-2.621-1.66-2.993-3.069c-11.664-5.044-21.794-13.965-28.177-24.944c9.26,8.23,18.48,16.177,27.98,24.086
			c-0.166-0.968-0.12-1.752-0.419-2.713c-0.546-1.893-1.892-3.572-3.627-4.463c-0.895-0.473-2.007-0.831-3.195-1.389
			c-3.667-1.568-5.683-5.762-6.928-9.085c-1.671-4.435-3.746-9.54-9.151-9.286c0,0,0.258-1.348,0.258-1.348
			c0.51-4.544-5.123-8.565-8.461-11.203c-4.277-3.042-9.139-5.229-14.272-6.453c5.339,0.52,10.555,2.311,15.16,5.102
			c4.047,2.733,9.622,6.291,10.067,11.624c4.867,0.962,7.513,6.22,9.096,10.49c1.292,3.123,2.513,6.037,5.523,7.464
			c5.635,2.065,8.506,5.033,8.801,11.239c0.258,0.844,1.109,1.111,1.899,1.755c4.047,2.959,6.247,7.979,5.839,12.853
			c6.055,3.337,5.239,11.196,8.152,16.742c7.971,7.262,16.512,14.478,24.443,21.744c1.37,1.255,3.263,2.595,4.914,1.745
			c2.27-1.169,1.161-4.607-0.235-6.746c2.285,1.735,4.651,3.363,7.089,4.876c1.205,0.748,2.859,1.442,3.924,0.505
			C727.127,231.311,726.741,229.661,726.226,228.404z M550.678,77.922c-4.947,5.458-12.179,7.808-19.213,8.723
			c6.015-3.09,12.485-5.676,16.983-10.729c2.183-2.418,3.978-5.345,6.149-8.137c2.153-2.818,4.712-5.347,7.651-7.293
			c-2.073,2.849-4.002,5.662-5.712,8.605C554.825,72.035,553.145,75.167,550.678,77.922z M570.215,68.563c0,0-2.522,2.07-2.522,2.07
			c-2.248,1.902-4.024,2.48-6.831,3.898C558.197,69.256,566.556,63.906,570.215,68.563z M562.129,80.349
			c2.134-0.965,5.32-2.358,7.315-3.477c2.011-1.063,4.943-2.988,6.901-4.24C575.082,78.563,567.788,82.507,562.129,80.349z
			 M672.529,214.793c-17.292-8.019-33.127-23.671-41.311-40.893c3.124,3.807,6.203,7.567,9.404,11.209
			C650.196,196.08,661.069,205.806,672.529,214.793z M659.12,190.95c8.547,7.184,18.103,14.015,26.666,21.188
			c-19.386-10.473-40.366-25.082-50.517-45.184C642.299,175.829,650.437,183.755,659.12,190.95z M631.66,142.669
			c-1.153,3.747-5.745,5.486-9.363,4.303c-1.124,2.777-4.38,4.58-7.346,3.72c-0.398-0.086-0.47-0.15-0.74-0.09
			c-0.714,0.34-1.898,1.441-2.901,1.658c-5.242,1.611-9.468-3.203-11.103-7.533c2.827,2.936,7.299,7.286,11.203,4.286
			c0.589-0.558,2.011-1.568,3.157-1.402c0.91,0.053,1.434,0.374,2.237,0.287c1.49-0.111,3.044-1.438,3.282-2.92l0.375-2.326
			l1.704,1.388C624.984,146.251,629.34,145.5,631.66,142.669z M695.335,205.925c-6.185-7.479-12.557-15.231-18.061-23.225
			c7.311,6.395,14.063,13.904,20.359,21.3c6.259,7.586,12.28,15.353,17.394,23.784C708.134,220.962,701.611,213.319,695.335,205.925
			z M699.777,201.224c-7.78-10.312-15.731-21.1-22.563-32.046c8.746,9.474,17.061,20.005,24.947,30.228
			c7.775,10.315,15.725,21.104,22.563,32.046C715.984,221.973,707.667,211.443,699.777,201.224z"/>
	</g>
	<g>
		<path d="M206.3,63.411c-2.845,3.574-7.809,4.665-12.377,4.744c-4.567,0.079-9.209-0.605-13.663,0.413
			c-4.473,1.022-8.38,3.679-12.061,6.417c-4.862,3.616-9.822,7.893-11.282,13.774c-1.249,5.032,0.309,10.286,0.473,15.468
			c0.119,3.738-2.776,8.856-6.379,9.858c-3.603,1.001-7.425,0.074-11.06-0.805c-10.05-2.43-20.197-4.49-30.442-5.881
			c-12.693-1.725-25.54-2.425-38.094-4.971c-15.876-3.219-31.474-9.398-47.653-8.587c-3.019,0.151-6.943,1.621-6.576,4.622
			c0.205,1.675,1.772,2.818,3.271,3.593c2.351,1.216,4.892,2.062,7.503,2.497c-1.408,0.605-2.526,1.849-2.978,3.314
			c2.854,2.949,7.057,4.536,11.147,4.209c-2.5,2.113-1.232,6.553,1.551,8.275c2.783,1.723,6.297,1.537,9.561,1.294
			c-2.017,0.438-2.861,3.122-2.04,5.016c0.821,1.894,2.737,3.068,4.645,3.856c2.144,0.885,4.424,1.439,6.735,1.635
			c0.012,0.213,0.049,0.42,0.079,0.629c19.831-2.785,39.551-5.784,59.319-8.992c-19.146,5.976-39.255,9.03-59.311,9.05
			c0.782,5.179,6.939,8.96,11.888,7.058c-0.029,0.06-0.047,0.121-0.072,0.182c16.712-3.892,34.557-8.859,50.848-14.138
			c-15.756,8.058-33.238,12.933-50.887,14.237c-0.791,2.148,0.954,4.676,3.163,5.459c2.306,0.817,4.845,0.291,7.233-0.241
			c0.639,4.779,7.143,7.578,11.053,4.757c0.961,4.485,7.377,6.618,10.832,3.601c-0.077,2.145,1.311,4.266,3.307,5.055
			s4.459,0.188,5.868-1.431c0.886,3.136,5.598,4.285,7.828,1.909c0.744,2.689,4.101,4.89,6.817,4.361
			c0.794-0.935,1.598-1.86,2.415-2.771c-0.04,0.017-0.078,0.037-0.117,0.054c0.097-0.088,0.2-0.169,0.297-0.257
			c0.154-0.172,0.305-0.346,0.46-0.517c0,0,0.056,0.044,0.073,0.057c6.146-5.467,12.665-10.406,19.633-14.79
			c-5.145,6.417-11.875,11.594-19.365,14.998c0.093,0.073,0.2,0.156,0.2,0.156c3.098,2.354,7.569,1.439,10.487-0.748
			c3.249-2.469,5.234-5.991,7.479-9.398c2.313-3.531,4.69-7.019,7.16-10.445c2.453-3.43,5.08-6.649,6.004-10.844
			c0.152,2.137-0.394,4.32-1.196,6.329c-2.595,5.861-6.095,11.15-9.385,16.613c-2.293,3.628-4.747,7.609-8.483,10.022
			c-3.652,2.465-9.211,2.978-12.577-0.163c-0.723,0.564-1.451,1.122-2.188,1.672c-0.224,14.242-8.333,27.19-17.587,38.036
			c-9.309,10.911-15.126,24.724-27.284,32.331c-3.209,2.008-1.824,7.626,1.688,9.04c3.511,1.415,7.581-0.339,10.337-2.934
			c-0.732,2.156-1.473,4.392-1.254,6.658c0.219,2.266,1.676,4.579,3.905,5.04c2.293,0.473,4.411-1.055,6.185-2.666
			c4.124-18.386,13.058-35.825,25.621-49.865c-10.221,15.62-18.686,32.188-25.351,49.617c0.089-0.083,0.183-0.166,0.27-0.249
			c-0.284,2.118-0.562,4.315,0.063,6.359c0.625,2.044,2.423,3.894,4.56,3.858c2.509-0.042,4.212-2.44,5.476-4.632
			c-0.189-16.523,5.319-33.25,15.358-46.368c-7.648,14.664-12.773,30.385-15.217,46.735c0.221,3.156,1.462,6.426,4.175,8.005
			c2.866,1.668,7.401,0.265,7.876-3.017c1.056,2.734,3.605,4.838,6.49,5.354c2.773,0.497,5.753-0.5,7.703-2.529
			c-8.711-15.577-6.975-34.676-3.634-51.587c-0.507,17.225-2.325,34.954,3.802,51.421c0.024-0.026,0.052-0.048,0.075-0.074
			c3.159,4.548,10.636,5.03,14.462,1.095c-9.085-15.476-13.562-33.816-12.544-51.728c1.798,17.74,6.052,35.033,12.699,51.568
			c0.071-0.078,0.151-0.146,0.22-0.227c2.513,1.24,5.161,2.456,7.964,2.432c2.594-0.022,5.324-1.436,6.251-3.803
			c-13.921-14.966-22.183-35.373-22.56-55.811c3.277,20.053,10.973,39.112,22.564,55.801c0.073-0.187,0.158-0.367,0.207-0.565
			c3.068,0.24,6.279,0.457,9.101-0.77c2.822-1.227,5.052-4.404,4.13-7.34c4.739,1.306,11.024-2.781,11.503-7.673
			c1.482,0.83,3.464,0.662,4.785-0.407c1.321-1.069,1.899-2.972,1.395-4.595c-0.539-1.739-2.094-2.932-3.551-4.024
			c-13.945-10.452-26.4-23.909-37.832-37.062c2.839-4.631,9.114-6.812,14.213-4.938c5.099,1.874,8.469,7.598,7.633,12.966
			c2.228-4.251,2.058-9.662-0.432-13.764c3.048,0.918,5.207,4.171,4.868,7.336c2.228-3.046,0.641-7.753-2.553-9.762
			c-3.195-2.009-7.352-1.811-10.94-0.643c9.072-6.543,18.405-13.367,24.077-23.008c8.239-14.004,7.356-31.349,6.249-47.56
			c-0.004-0.054-0.007-0.108-0.011-0.162c-2.478,1.262-4.962,2.495-7.475,3.687c-3.173,1.641-5.719,1.226-7.191-1.553
			c-1.618,1.287-3.882,1.678-5.868,0.891c-1.625-0.679-2.845-2.051-3.398-3.685c-2.351,1.151-5.414,0.734-7.359-1.066
			c-7.421-7.909,1.555-17.965,7.838-23.207c8.737-7.251,19.104-11.594,27.551-19.125c-7.952,9.76-20.049,15.099-28.622,24.087
			c-3.279,3.6-7.283,8.139-6.321,13.208c0.47,2.135,2.054,3.947,4.331,3.882c1.042-0.016,2.013-0.445,2.537-1.172l3.858-5.36
			l-1.413,6.361c-0.315,1.418,0.545,3.243,1.943,3.893c1.381,0.695,3.429,0.245,4.469-1.025l1.206-1.474
			c0.475,1.479,0.901,4.146,2.314,4.643c0.976,0.421,2.389,0.098,3.692-0.365c2.615-0.923,5.257-1.809,7.905-2.666
			c-1.099-16.151-1.878-33.426,6.418-47.316c2.538-4.249,5.836-7.994,9.295-11.534c9.999-10.233,21.441-18.925,32.837-27.575
			c3.678-2.792,7.357-5.584,11.035-8.376C239.159,31.672,220.099,46.074,206.3,63.411z M27.764,103.598
			c20.054,0.475,40.079,3.526,59.356,9.079C67.911,110.018,46.892,106.792,27.764,103.598z M35.281,111.596
			c23.758,0.078,47.535,2.69,70.737,7.802C83.149,117.183,58.084,114.408,35.281,111.596z M46.626,122.859
			c21.006-1.58,42.114-1.757,63.142-0.497C88.763,123.954,67.655,124.108,46.626,122.859z M78.13,145.336
			c15.934-5.214,31.63-10.802,47.287-16.799C110.975,137.126,94.751,142.878,78.13,145.336z M89.071,149.88
			c15.175-6.164,30.926-10.999,44.68-20.14C121.667,141.24,105.054,146.459,89.071,149.88z M100.772,153.722
			c12.262-6.936,25.11-12.579,36.895-20.358C127.605,143.44,114.153,149.401,100.772,153.722z M109.298,156.257
			c11.573-5.833,22.82-11.993,33.984-18.575C133.8,146.589,121.911,153.074,109.298,156.257z M117.92,158.474
			c11.124-6.695,22.064-13.46,33.042-20.392C141.738,147.279,130.271,154.342,117.92,158.474z M92.403,239.396
			c8.871-16.691,19.387-32.528,31.355-47.16C114.132,208.496,103.662,224.223,92.403,239.396z M124.003,260.263
			c-3.097-17.234-0.144-35.7,8.2-51.097C126.561,225.64,123.788,242.85,124.003,260.263z M147.926,196.817
			c6.089,21.163,17.442,40.507,32.974,56.12C163.343,239.427,151.172,218.734,147.926,196.817z M191.985,247.071
			c-16.992-10.444-30.402-26.984-37.078-45.781C164.207,218.817,176.764,234.34,191.985,247.071z M181.315,83.728
			c-1.545,0.357-2.951,0.688-4.621,1.151c0.208-4.403,7.198-5.975,9.287-2.104C184.282,83.068,182.856,83.383,181.315,83.728z"/>
		<path d="M85.917,66.649c-1.885-0.99-3.851-1.978-5.975-2.114c-2.125-0.136-4.465,0.801-5.337,2.744
			c-0.871,1.943,0.494,4.712,2.623,4.682c-1.511,3.103,0.622,7.364,4.012,8.014c-1.313,4.635,2.09,10.029,6.84,10.838
			c-0.791,4.07,2.035,8.508,6.058,9.512c-0.444-0.111-0.18,0.895,0.361,2.235c13.575-0.451,27.096,2.496,40.341,5.674
			c4.102,0.984,8.399,1.993,12.487,0.951c0.875-0.223,1.73-0.581,2.532-1.036C129.206,93.3,108.433,78.471,85.917,66.649z
			 M87.523,89.835c7.088,1.33,14.039,3.129,20.868,5.441c6.742,2.43,13.688,5.176,19.111,10.005
			C115.017,98.653,100.438,95.49,87.523,89.835z M80.376,79.109c9.046,2.972,17.967,6.23,26.682,10.104
			c8.624,3.965,17.338,8.366,24.332,14.901C115.665,93.945,96.877,87.836,80.376,79.109z M76.634,71.166
			c10.215,3.817,20.273,7.967,30.067,12.774c9.703,4.902,19.426,10.338,27.269,17.975C116.17,89.314,95.623,81.689,76.634,71.166z"
			/>
	</g>
	<g>
		<g>
			<path d="M524.108,311.633c-1.484-0.944-3.324-1.094-5.081-1.167c-12.82-0.536-25.586,1.583-38.242,3.694
				c-3.765,0.628-7.53,1.256-11.295,1.884c16.533,0.009,33.068,0.827,49.518,2.452c-16.863,0.488-33.74,0.128-50.563-1.069
				c-0.163,1.046-0.44,2.069-0.848,3.049c4.717,0.085,9.434,0.243,14.151,0.431c10.139,0.548,20.575,0.721,30.323,3.915
				c-8.721-1.494-21.481-1.555-30.41-1.918c-4.966-0.235-9.928-0.5-14.884-0.852c-0.456,0.729-1,1.401-1.615,1.997
				c12.581,0.541,25.115,2.483,37.243,5.786c-13.151-1.542-26.276-2.93-39.431-4.192c-0.826,0.432-1.708,0.745-2.642,0.867
				c-0.036,0.436-0.11,0.866-0.203,1.292c10.67,1.261,21.186,3.966,31.108,8.024c2.384,0.284,4.853,0.53,7.116-0.255
				c2.331-0.809,4.36-3.059,4.057-5.508c2.349,0.781,4.968,1.233,7.264,0.307c2.296-0.925,3.994-3.648,3.053-5.938
				c2.041,0.052,4.197,0.037,5.959-0.993s2.88-3.444,1.816-5.186c1.999-0.035,4.398-0.309,5.281-2.103
				C526.557,314.572,525.593,312.577,524.108,311.633z"/>
			<path d="M435.065,352.394c3.118,1.744,5.836,4.226,7.789,7.195c-3.464-1.856-6.709-3.966-9.79-6.337
				c-0.496,3.961-4.473,7.17-8.454,6.775c-0.067,0.246-0.153,0.484-0.241,0.722c2.762,1.624,5.025,4.125,6.284,7.063
				c-2.625-1.507-4.973-3.361-7.022-5.534c-2.197,3.663-6.863,5.846-11.056,4.8c-3.722,3.043-7.788,7.261-13.273,4.953
				c-0.075,2.453-1.631,4.749-3.789,5.884c0.343,0.138,0.691,0.264,1.051,0.36c2.412,0.637,5.023,0.097,7.246-1.037
				c2.223-1.133,4.112-2.821,5.887-4.574c1.758,2.244,5.243,2.438,7.819,1.217c2.575-1.221,4.453-3.512,6.242-5.731
				c0.741,2.152,3.06,4.678,5.226,3.978c2.166-0.7,3.518-3.282,2.859-5.461c2.621,0.207,5.376-0.055,7.633-1.403
				c2.257-1.348,3.884-3.971,3.472-6.568c2.425,0.729,5.106,1.015,7.446,0.046c2.257-0.934,4.017-3.294,3.736-5.697
				c-4.553-2.288-9.125-4.433-13.746-6.47C439.437,349.089,437.486,351.225,435.065,352.394z"/>
			<path d="M457.01,333.379c6.812,1.553,13.408,4.081,19.464,7.501c-7.144-2.102-14.277-4.06-21.446-5.923
				c-1.261,0.792-2.67,1.337-4.152,1.54c-0.382,0.979-0.894,1.901-1.506,2.753c5.035,1.882,9.83,4.413,14.19,7.527
				c-4.133-1.358-9.847-3.697-13.95-5.269c-0.513-0.206-1.052-0.421-1.611-0.642c-1.904,1.916-4.382,3.266-7.046,3.724
				c4.838,1.971,9.336,4.784,13.166,8.284c-0.005-0.032-0.001-0.063-0.007-0.095c4.337,1.633,9.777-1.009,11.175-5.427
				c2.474,0.043,5.034,0.07,7.309-0.905c2.275-0.974,4.193-3.24,3.946-5.702c2.772,0.399,5.617,0.797,8.352,0.192
				c2.724-0.603,5.356-2.425,6.116-5.107c-10.463-2.24-20.905-4.355-31.385-6.373C459.042,330.925,458.138,332.264,457.01,333.379z"
				/>
		</g>
		<path d="M503.108,259.995c-0.566-2.693-4.124-3.267-6.872-3.118c-27.824,1.503-53.242,15.692-76.728,30.687
			c-16.779,10.712-33.488,22.228-49.46,34.109c0.321-6.978,0.633-14.064-0.973-20.862c-1.606-6.798-5.413-13.393-11.527-16.77
			c-5.477-3.025-12.114-3.141-18.3-2.196c-5.915,0.904-11.111,3.48-15.786,7.215c-17.12-4.8-34.836-7.47-52.611-7.931
			c-1.667-0.043-3.812,0.283-4.182,1.909c18.192,4.538,35.621,8.846,53.813,13.384c1.302,3.867,3.098,7.567,5.33,10.982
			c1.622,2.481,3.478,4.822,4.813,7.468c1.789,3.547,2.574,7.519,2.973,11.472c1.38,13.654-1.596,27.689,1.563,41.044
			c1.152,4.87,3.096,9.516,5.171,14.07c3.194,7.012,6.728,13.868,10.568,20.547c9.189-8.523,20.26-15.246,31.135-21.143
			c-11.115,8.165-22.765,15.924-32.84,25.323c-4.006,6.263-7.622,12.612-10.3,19.608c-0.628,1.64-1.053,3.864,0.408,4.838
			c0.83,0.553,1.931,0.41,2.898,0.167c2.574-0.647,5.005-1.857,7.074-3.519c-1.139,4.19-2.284,8.59-1.305,12.82
			c0.979,4.23,4.851,8.132,9.154,7.548c-0.109,0.543-0.216,1.091-0.319,1.642c6.469-7.522,9.166-17.588,12.458-26.737
			c3.401-9.507,6.734-18.96,9.587-28.659c-1.28,10.053-4.373,19.794-7.702,29.325c-3.397,9.24-6.586,19.565-14.359,26.163
			c-0.623,3.357-1.012,6.816,0.143,9.988c1.354,3.722,5.691,6.655,9.306,5.038c-1.123,3.001-0.226,6.648,2.16,8.786
			c2.347,2.103,5.983,2.605,8.824,1.247c7.168-24.728,11.193-50.204,12.026-75.936c1.943,25.733-2.226,52.035-11.991,75.922
			c0.036-0.017,0.075-0.027,0.111-0.045c0.296,1.948,0.998,4.827,2.841,4.13c1.038-0.392,1.403-1.647,1.631-2.734
			c2.685-12.832,5.371-25.664,8.056-38.497c1.524-7.281,3.049-14.574,3.896-21.964c1.491-13.013,0.849-26.268-1.891-39.076
			c1.323,0.373,3.916-1.432,4.888-2.404c0.84-0.84,1.247-2.082,1.102-3.258c-3-1.262-5.691-3.527-8.307-5.317
			c-3.835-2.969-7.522-6.372-9.968-10.618c3.658,3.183,7.324,6.132,11.181,9.029c1.425,1.084,4.273,3.299,5.674,4.413
			c1.183,0.909,2.378,1.782,3.694,2.468c3.958,0.332,8.126-1.874,9.896-5.45c-11.207-3.437-21.224-11.186-27.335-21.192
			c8.254,8.196,17.339,15.241,27.345,21.169c0.125-0.254,0.242-0.512,0.341-0.778c2.13,1.702,5.37,1.413,7.654-0.077
			c2.284-1.49,3.767-3.934,4.878-6.424c1.676,1.088,4.229-1.009,5.901-2.104c1.672-1.095,2.603-3.22,2.274-5.191
			c4.672,0.941,9.332-4.374,7.786-8.883c4.132,1.416,9.015-2.799,8.218-7.093c2.797-0.646,5.684-1.458,7.818-3.378
			c2.134-1.92,3.253-5.266,1.808-7.747c2.104,0.964,4.788,0.47,6.411-1.179c1.555-1.58,2.019-4.109,1.181-6.155
			c-21.531,3.881-44.107,2.611-65.057-3.697c21.515,3.587,43.27,4.828,65.051,3.681c-0.035-0.085-0.058-0.175-0.098-0.258
			c4.951-0.75,8.681-6.121,7.655-11.022c3.991,0.299,7.728-3.653,7.206-7.621c4.271-0.953,7-6.169,5.348-10.22
			c4.206-0.021,7.312-5.402,5.226-9.054c1.953-0.015,4.023-0.524,5.344-1.963s1.532-3.973,0.055-5.25
			c2.971-0.671,5.799-4.228,4.702-7.07C501.672,263.845,503.502,261.868,503.108,259.995z M347.975,294.584
			c-3.654,0.2-6.554,0.062-10.178-0.433C339.947,290.566,346.142,290.818,347.975,294.584z M351.429,328.741
			c0.179,1.981-0.6,3.978-2.116,5.281c-1.784,1.487-4.245,1.745-6.241,0.865c-0.603,1.721-1.522,3.394-3.028,4.482
			c-1.747,1.257-4.562,1.38-5.933-0.395c1.518,1.371,3.952,0.902,5.31-0.374c1.676-1.544,2.142-4.041,2.551-6.27l1.068,0.61
			c1.516,0.866,3.64,0.54,4.78-0.591c1.168-1.117,1.433-3.15,0.712-4.476l-1.146-2.106c1.655,0.127,3.968,0.469,5.553,0.131
			c1.349-0.29,2.208-0.689,2.296-1.848c-0.601-3.487-3.304-6.44-5.876-8.84c-5.173-4.431-11.357-7.506-17.108-11.245
			c-3.922-2.443-7.8-4.963-11.612-7.601c6.343,2.842,12.526,5.958,18.678,9.167c6.294,3.305,12.742,6.665,16.809,12.981
			C360.14,324.6,357.744,328.884,351.429,328.741z M349.104,426.798c9.678-12.523,18.177-25.75,25.575-39.742
			C369.829,402.185,360.855,416.11,349.104,426.798z M366.577,464.437c8.183-22.655,13.884-46.051,17.074-69.925
			C383.23,418.657,377.32,442.811,366.577,464.437z M387.061,336.241c10.552,9.161,22.453,16.402,35.453,21.531
			C408.654,355.312,395.628,347.414,387.061,336.241z M390.246,331.078c12.842,7.77,26.239,14.292,40.287,19.576
			C415.692,348.025,401.479,341.13,390.246,331.078z M387.228,324.493c16.29,7.784,33.322,13.605,50.976,17.388
			C420.113,340.838,402.181,334.733,387.228,324.493z M395.577,323.486c17.192,4.785,34.576,8.37,52.264,10.743
			C429.952,334.608,411.863,330.901,395.577,323.486z M456.166,324.066c-21.829,0.892-44.644,0.308-64.968-8.551
			C412.336,321.709,434.372,322.199,456.166,324.066z M454.476,307.436c-5.662,1.002-11.362,1.834-17.099,2.444
			c-11.443,1.168-23.206,1.292-34.464-1.313c11.45,1.027,22.863,0.538,34.261-0.675c5.692-0.565,11.375-1.309,17.076-1.993
			c5.679-0.681,11.55-1.486,17.25-0.542C465.726,305.202,460.147,306.48,454.476,307.436z M410.273,300.358
			c22.616-2.514,45.379-3.643,68.133-3.412C455.789,299.449,433.028,300.6,410.273,300.358z M426.899,291.226
			c18.745-3.257,37.81-4.738,56.833-4.446C464.871,289.225,445.911,290.72,426.899,291.226z M475.084,280.236
			c0,0-13.339,2.446-13.339,2.446c-7.874,1.355-18.959,3.408-26.787,4.445c8.641-2.805,17.51-4.777,26.435-6.413
			c4.467-0.782,8.949-1.482,13.454-2.015c4.469-0.442,9.195-1.397,13.597-0.059C483.898,278.138,479.527,279.502,475.084,280.236z
			 M444.806,278.311c15.853-5.492,32.797-8.062,49.566-7.549C477.776,272.993,461.316,275.511,444.806,278.311z M455.181,269.972
			c6.947-1.883,14.008-3.128,21.099-4.259c7.114-0.925,14.234-2.323,21.446-1.92C483.639,266.466,469.56,269.39,455.181,269.972z"/>
	</g>
	<g>
		<g>
			<path d="M649.777,337.098c1.258,0.917,2.236,2.132,2.696,3.785c-1.146-1.305-2.513-2.107-3.991-2.701
				c-1.451,1.017-3.166,1.641-4.945,1.659c0.089,0.798,0.016,1.602-0.187,2.373c0.238,0.335,0.445,0.688,0.614,1.056
				c0.498,1.027,0.465,1.908,1.077,2.771c-0.549-0.054-1.034-0.44-1.412-0.816c-0.335-0.417-0.688-0.807-1.048-1.185
				c-0.908,1.54-2.367,2.761-4.096,3.233c0.582,1.647,0.563,3.458,0.063,5.128c0.28-0.071,0.559-0.147,0.834-0.241
				c2.674-0.918,5.061-3.298,5.057-6.125c3.44,0.688,7.206-1.717,8.028-5.128c5.211-0.319,10.077-3.84,12.06-8.662
				c-3.998-0.012-8.037-0.278-12.072-0.441C652.205,333.809,651.213,335.671,649.777,337.098z"/>
			<path d="M730.89,279.172c-0.562-0.295-1.231-0.264-1.864-0.222c-10.212,0.676-20.357,2.3-30.278,4.814
				c-1.171,1.958-2.932,3.569-5.027,4.479c-0.594,0.258-1.242,0.486-1.648,0.991c-0.02,0.025-0.028,0.055-0.046,0.08
				c9.743-1.963,19.955-1.776,29.534,0.669c-10.082-0.598-20.116-0.159-30.051,1.254c-0.006,0.062-0.012,0.126-0.019,0.187
				c-0.166,1.547-0.723,3.017-1.553,4.322c8.417-0.939,17.011-0.405,25.178,1.656c-0.375-0.02-0.749-0.027-1.123-0.045
				c3.891,0.717,7.946-3.26,7.171-7.178c3.724-0.936,7.119-3.128,9.506-6.135C731.829,282.583,732.542,280.038,730.89,279.172z"/>
			<path d="M688.15,297.902c-1.947,1.837-4.527,3.007-7.21,3.009c-0.058,0.602-0.17,1.194-0.317,1.777
				c8.159-1.291,16.574-1.103,24.612,0.622c-8.193,0.068-16.823,0.529-25.27,1.314c-0.69,1.6-1.699,3.063-2.94,4.295
				c6.629-0.527,13.315-0.314,19.863,0.675c-7.502,0.319-15.322,0.905-23.092,1.704c-1.084,0.572-2.242,0.999-3.452,1.228
				c-0.072,1.349-0.474,2.647-1.109,3.827c5.637-0.182,11.302,0.483,16.695,2.01c-5.899-0.15-12.067-0.109-18.202,0.097
				c-1.772,1.918-4.252,3.192-6.87,3.245c-0.045,1.001-0.263,1.981-0.611,2.915c4.542-0.129,9.093,0.291,13.496,1.291
				c-4.735,0.106-9.632,0.376-14.538,0.776c-0.857,1.316-2.001,2.447-3.328,3.277c2.997,0.329,5.958,1.069,8.736,2.075
				c0.026-0.067,0.058-0.131,0.083-0.198c3.478,0.532,7.163-1.849,8.108-5.238c5.054,0.368,10.128-3.152,11.552-8.016
				c5.062,0.411,10.075-3.661,10.711-8.699c2.258-0.005,4.604-0.029,6.636-1.013c2.032-0.984,3.642-3.231,3.133-5.43
				c3.89,0.47,7.908-2.3,8.861-6.099C705.144,296.947,696.629,297.126,688.15,297.902z"/>
		</g>
		<path d="M605.586,341.327c-4.349-5.566-11.418-7.186-17.669-10.166c-1.651-0.793-3.407-1.745-4.797-3.368
			c-1.457-1.572-1.891-4.189-1.152-6.159c2.192-6.271,8.546-8.543,13.555-12.144c-1.192-9.591-2.44-19.29-5.985-28.278
			c-3.588-9.098-9.844-17.539-18.696-21.696c-6.252-2.936-13.367-3.573-19.704-6.317c-9.075-3.93-15.739-11.763-22.621-18.865
			c-8.37-8.635-17.884-14.839-27.662-21.84c9.985,10.909,19.97,21.818,29.955,32.728c5.659,6.183,11.571,12.87,12.9,21.146
			c1.519,9.462-3.311,18.964-2.468,28.51c0.469,5.315,2.667,10.298,3.983,15.472c3.609,0.534,7.503-0.924,9.534-3.995
			c0,0,0.51,1.036,0.51,1.036c0.638,1.297,2.068,2.202,3.45,2.213c1.382,0.034,2.774-0.82,3.39-1.978l0.966-1.815l0.899,1.919
			c2.008,3.792,6.715,3.45,8.683-0.167c0,0,1.028,0.539,1.028,0.539c2.456,1.361,5.903,2.839,7.9,0.593
			c1.346-2.119,0.087-6.275-0.818-8.718c-2.542-6.275-7.301-11.612-11.683-16.768c-4.598-5.211-9.582-10.088-14.9-14.602
			c-5.302-4.511-11.259-8.688-15.315-14.469c4.748,5.24,10.819,8.766,16.467,13.025c8.504,6.377,16.173,13.899,22.669,22.341
			c2.155,2.85,4.2,5.909,5.538,9.391c2.307,5.865,3.062,14.502-5.804,13.649c-1.673-0.272-3.096-0.956-4.39-1.653
			c-3.005,2.904-8.092,2.393-10.498-0.913c-2.481,2.192-6.669,1.716-8.444-1.129c-2.481,2.079-5.96,2.792-9.053,2.063
			c0.125,0.52,0.253,1.039,0.356,1.564c1.236,6.298,0.648,12.801,1.149,19.2c0.978,12.499,6.139,24.428,13.35,34.684
			c8.633,12.279,20.608,23.316,23.77,37.801c1.662-2.173,3.38-4.294,5.116-6.361c5.324-6.053,10.47-12.522,17.394-16.859
			c-5.701,5.722-10.181,12.372-15.197,18.647c-3.979,5.029-7.894,10.097-11.49,15.371c-0.613,1.455-1.185,2.961-1.739,4.584
			c-1.042,3.053-1.769,6.686,0.127,9.297c-1.396,2.747-2.8,5.628-2.837,8.709c-0.037,3.082,1.719,6.413,4.71,7.152
			c-0.002,0.019-0.003,0.038-0.004,0.057c3.254-8.556,7.764-16.53,12.72-24.194c5.064-7.618,10.663-14.906,17.246-21.291
			c-4.029,6.824-10.378,16.215-14.742,22.94c-4.47,6.682-10.534,16.135-15.227,22.575c-0.32,3.124,0.073,6.318,1.147,9.268
			c0.387,1.062,1.017,2.225,2.127,2.439c0.903,0.174,1.78-0.358,2.519-0.903c6.001-4.428,9.789-11.132,13.281-17.754
			c2.082-10.428,6.467-20.404,12.79-28.957c-2.52,10.036-6.695,19.586-12.282,28.289c-1.734,8.515-3.423,17.218-2.232,25.819
			c0.269,1.943,1.05,4.251,2.977,4.618c1.672,0.319,3.157-1.059,4.221-2.388c3.838-4.797,6.432-10.567,7.525-16.612
			c-1.521-12.45-0.697-25.193,2.469-37.332c0.924,12.081,0.159,24.229-2.193,36.109c0.523,6.177,0.952,13.293,2.2,19.339
			c0.385,1.868,1.1,4.055,2.942,4.549c2.773-3.177,4.596-7.162,5.226-11.33c-1.765-7.537-2.635-15.463-3.331-23.152
			c-0.6-7.905-0.969-15.791-0.419-23.738c1.824,7.737,2.728,15.602,3.408,23.496c0.516,7.232,0.913,14.712,0.519,21.986
			c0-0.005,0.001-0.009,0.002-0.014c0.205,1.874,0.833,3.699,1.824,5.303c0.216,0.349,0.471,0.707,0.852,0.86
			c1.01,0.406,1.884-0.812,2.267-1.83c4.349-11.541,3.778-24.27,3.146-36.587c7.89-10.085,10.226-24.411,8.558-37.107
			c-1.554-11.833-6.654-22.97-13.402-32.839c-1.359-0.56-2.769-1.022-4.178-1.479C612.598,352.124,610.944,348.443,605.586,341.327z
			 M571.234,267.902c-1.613-0.885-3.371-1.768-5.053-2.743c3.96-2.41,9.983,0.853,10.101,5.495
			C574.551,269.78,572.848,268.776,571.234,267.902z M577.906,430.332c6.424-13.204,15.983-25.046,27.566-34.075
			C596.906,408.157,587.742,419.458,577.906,430.332z M608.99,385.442c3.154,9.951,8.485,18.63,15.898,25.976
			C614.8,407.558,607.852,396.177,608.99,385.442z"/>
		<path d="M701.09,260.994c-1.535-1.024-3.575-0.625-5.362-0.163c-23.375,6.052-45.347,16.479-67.154,26.845
			c-11.378,5.408-23.028,11.702-31.733,20.802c0.447-0.368,0.883-0.746,1.293-1.151c-3.08,4.387-8.217,6.768-11.611,10.76
			c-3.876,4.675-3.234,8.26,2.575,10.498c6.441,2.778,14.308,4.91,18.711,10.973c2.245,2.972,3.882,6.1,6.118,8.57
			c2.791,3.152,7.159,4.543,11.082,6.489c-0.104-0.146-0.206-0.296-0.311-0.442c3.182,0.776,4.539-0.092,7.649-1.117
			c3.111-1.025,5.617-4.599,4.279-7.589c0.05,0.003,0.098-0.004,0.148-0.003c-8.513-4.655-17.13-9.871-25.155-15.304
			c9.422,3.074,18.151,8.382,25.245,15.302c2.867-0.016,5.302-3.008,4.903-5.81c-11.291-6.079-22.535-12.005-33.917-17.91
			c12.42,3.335,24.15,9.54,33.917,17.904c-0.036-0.249-0.086-0.497-0.168-0.741c4.744-0.259,8.747-5.012,8.196-9.732
			c4.325,0.061,8.229-4.026,8.028-8.334c-14.545-2.686-30.301-5.9-44.665-9.146c15.228,0.674,30.383,3.729,44.7,8.965
			c5.812,0.241,11.083-5.61,10.225-11.367c6.016,0.679,11.762-5.494,10.655-11.446c6.288,0.78,12.32-5.769,11.028-11.972
			c4.054,0.609,8.347-3.253,6.981-7.118c2.198-0.169,4.537-1.133,5.483-3.124c0.946-1.992-0.387-4.936-2.592-4.875
			c1.191-1.439,2.413-2.935,2.916-4.733C703.058,264.227,702.644,262.031,701.09,260.994z M649.662,329.213
			c-12.499-4.325-24.968-8.367-37.618-12.229C625.262,318.129,638.294,322.377,649.662,329.213z M615.159,308.08
			c17.278-3.955,35.698-3.438,52.734,1.45C650.36,307.365,632.784,306.892,615.159,308.08z M621.274,303.782
			c17.724-7.748,38.023-9.927,56.992-6.148C659.032,296.631,639.853,298.711,621.274,303.782z M621.194,300.131
			c21.553-9.155,44.748-17.294,68.499-15.543C666.056,285.606,643.708,293.59,621.194,300.131z M662.894,282.862
			c10.384-4.533,22.133-6.17,33.363-4.679C685.049,279.451,674.02,281.009,662.894,282.862z M626.926,292.194
			c21.441-13.356,46.913-18.388,71.706-21.125C674.282,276.53,649.586,281.345,626.926,292.194z"/>
	</g>
	<g>
		<path d="M491.076,24.664c-0.981-0.054-1.938,0.272-2.861,0.608c-17.652,6.428-32.836,18.062-47.912,29.27
			c-25.365,18.858-51.274,36.984-77.683,54.349c-0.107-0.077-0.218-0.148-0.326-0.224c-1.71,1.975-3.192,4.109-4.052,6.548
			c-1.575,4.313-0.837,9.479,3.255,12.034c5.56,3.637,13.357,6.496,18.865,1.777c1.61-1.406,2.651-3.339,2.683-5.3l0.027-1.63
			l1.588,0.086c4.809,0.278,9.343-5.288,8.166-9.975l-0.366-1.474l1.457-0.239c4.914-0.81,8.265-6.625,6.694-11.367
			c1.842-0.244,3.56-1.025,4.883-2.471c3.588-3.751,3.564-9.261,3.221-14.242c1.121,5.085,1.568,11.023-1.99,15.325
			c-0.973,1.192-2.251,2.213-3.746,2.827c0.93,5.086-2.342,10.56-7.208,12.277c0.72,5.804-3.96,11.675-9.76,12.369
			c-0.413,2.404-1.805,4.592-3.632,6.146c-6.589,5.724-16.167,2.594-22.371-2.091c-4.709-3.231-5.548-9.74-3.242-14.637
			c1.15-2.529,2.864-4.606,4.82-6.451c-8.284-5.633-18.213-8.847-27.81-11.73c-1.869-0.561-3.791-1.081-5.413-2.166
			c-1.513-1.012-2.674-2.456-3.919-3.784c-7.225-7.709-18.101-11.837-28.622-10.864s-20.455,7.027-26.143,15.931
			c-3.629,1.573-8.424,2.272-12.053,3.845c-11.297,4.897-22.702,9.854-32.625,17.143c1.125,1.236,3.146,0.625,4.675-0.05
			c11.74-5.178,25.566-9.133,38.211-11.306c14.601,8.57,29.582,17.469,39.887,30.902c6.599,8.603,11.093,18.85,18.828,26.448
			c4.243,4.167,9.31,7.379,14.335,10.559c6.181,3.911,12.363,7.822,18.544,11.733c-11.14,9.273-22.848,19.622-26.241,33.714
			c-0.436,1.812-0.511,4.162,1.12,5.063c1.077,0.595,2.414,0.238,3.565-0.195c2.692-1.013,5.251-2.381,7.589-4.057
			c-2.36,4.437-4.302,9.096-5.793,13.896c-0.512,1.649-0.965,3.465-0.31,5.063c0.906,2.212,3.706,3.144,6.049,2.67
			c2.178-0.441,4.032-1.798,5.747-3.229c1.343-4.427,3.75-8.441,6.622-12.039c3.187-3.882,6.969-7.336,11.521-9.565
			c-1.45,2.093-2.999,3.989-4.516,5.897c-4.298,5.192-9.196,11.608-13.737,16.646c-1.068,2.715-1.885,5.528-2.403,8.399
			c-0.387,2.144-0.211,5,1.866,5.659c1.558,0.494,3.124-0.666,4.285-1.817c2.454-2.431,4.594-5.18,6.348-8.157
			c-1.639,2.33,1.557,5.576,4.359,5.064c2.803-0.512,4.691-3.085,6.201-5.501c3.369-5.389,6.402-11.19,7.169-17.499
			c0.233,6.81,0.723,14.998,2.783,21.493c0.57,1.798,1.37,3.758,3.091,4.529c1.706,0.764,3.785,0.028,5.12-1.28
			c1.335-1.308,2.091-3.082,2.814-4.806c-0.245,4.098,0.347,8.243,1.729,12.109c0.479,1.339,1.142,2.745,2.408,3.392
			c2.992,1.529,5.989-2.278,6.617-5.58c1.304,1.82,1.149,4.255,1.406,6.479c0.257,2.224,1.417,4.774,3.641,5.033
			c2.945,0.343,4.493-3.366,4.934-6.298c3.351-22.285-0.136-45.551-9.874-65.874c2.271-9.052,4.816-19.486,3.48-28.723
			c-1.082-7.479-4.383-14.427-7.643-21.244c3.697,1.636,8.833-3.201,7.722-7.088c5.066,0.871,10.32-3.762,10.088-8.897
			c5.283-0.526,9.52-6.022,8.684-11.265c4.75,0.386,9.331-3.951,9.206-8.715c5.983-0.652,11.102-6.007,11.485-12.013
			c6.489-0.833,12.155-6.036,13.639-12.393c-14.133,2.047-29.194,5.102-42.956,8.704c13.284-6.387,28.267-9.465,42.999-8.893
			c0.037-0.168,0.084-0.334,0.115-0.504c5.89,0.221,11.457-4.913,11.71-10.802c5.164-1.223,8.22-7.83,5.806-12.557
			c8.679-3.233,14.608-12.662,13.762-21.884c1.646-2.155,3.326-4.479,3.592-7.177S493.784,24.813,491.076,24.664z M303.016,92.709
			c1.217,0.229,2.42,0.7,3.429,1.682c-1.184,0.751-2.196,1.195-3.178,1.593c-3.141,1.175-5.887,1.769-9.369,1.645
			C295.148,93.902,299.349,92.093,303.016,92.709z M323.782,113.541c-0.606,0.94-1.339,1.504-1.993,1.988
			c-1.57,1.1-3.251,1.99-5,2.696c1.014,1.366,1.462,3.132,1.095,4.884c-0.587,2.355-2.614,4.019-4.893,4.322
			c0.255,1.771-0.851,3.757-2.492,4.491c-2.003,0.892-4.117,0.478-6.112-0.001c2.51,0.032,6.197-0.029,6.815-3.036
			c0.155-0.782-0.076-1.459-0.523-1.735l-3.578-2.202l4.445,0.389c0.827,0.072,1.691-0.239,2.349-0.778
			c2.067-1.501,1.173-4.824-1.188-5.245c0,0-7.421-1.017-7.421-1.017c4.271-1.428,10.714-2.904,14.157-5.895
			c0.574-0.509,1.12-0.9,1.044-1.465c-0.197-0.547-1.125-1.105-1.809-1.381c-15.895-4.945-33.302-0.197-49.385-4.7
			c12.758,0.678,25.168-2.121,37.96-1.461c4.4,0.305,8.9,0.801,13.063,2.391C323.331,106.941,325.879,110.35,323.782,113.541z
			 M403.227,231.508c0.188-7.03,0.229-16.824,0.811-23.774c3.441,15.54,3.138,32.147-0.812,47.563
			C402.89,248.368,403.177,238.515,403.227,231.508z M368.042,187.132c1.936-0.272,4.905-0.527,6.887,0.368
			c2.006,0.661,3.906,1.646,5.898,1.853c4.873,0.389,9.236-3.411,10.851-7.883c1.408-3.823,1.355-8.224,0.731-12.581
			c1.862,3.982,2.763,8.68,1.605,13.301c-1.311,5.785-7.189,11.027-13.533,10.201c-3.289-0.316-6.364-2.788-9.277-3.128
			c-0.878-0.143-1.996,0.074-3.272-0.091c-3.581-0.417-6.271-3.187-8.333-5.786C362.241,185.13,364.862,187.189,368.042,187.132z
			 M345.305,219.878c3.441-6.361,9.498-11.312,16.433-13.378C357.278,212.126,351.709,216.638,345.305,219.878z M359.632,243.88
			c1.425-9.155,6.144-17.862,13.07-24.021C369.385,228.444,365.024,236.424,359.632,243.88z M384.392,248.426
			c-0.265-4.563-0.321-10.855-0.442-15.441c-0.052-5.184-0.181-10.337,0.627-15.528
			C387.605,227.406,388.425,238.648,384.392,248.426z M397.914,205.494c-0.402,3.833-2.096,6.819-4.533,8.473
			c2.988,9.793,2.624,20.698-1.021,30.255c-0.45-10.034-0.304-19.898,0.47-29.891c-2.715,1.544-6.239,1.513-9.934-0.731
			c-0.094-0.048-0.211-0.108-0.324-0.166c-0.285,0.341-0.725,0.92-0.888,1.121c-2.694,4.061-7.613,4.371-10.875,0.801
			c-1.092-1.178-1.783-2.562-2.302-3.903c-1.921-5.299-2.972-10.754-3.11-16.266c1.409,5.29,3.126,10.483,5.339,15.287
			c0.573,1.152,1.239,2.188,2.044,2.984c1.441,1.4,3.752,2.071,5.298,0.545c0.569-0.521,1.265-1.484,1.782-2.165
			c0.231-0.282,0.385-0.546,0.855-0.989c0.468-0.534,1.776-0.874,2.445-0.559c0.722,0.273,0.82,0.4,1.165,0.562
			c4.099,2.513,7.753,2.174,10.276-2.159c2.696-4.744,1.129-10.312,1.256-15.526C396.803,197.195,398.209,201.241,397.914,205.494z
			 M385.931,135.188c5.191,1.084,9.98,4.081,13.248,8.254C394.24,141.601,389.754,138.819,385.931,135.188z M391.112,131.129
			c5.967,0.237,11.851,2.204,16.778,5.575C401.973,136.017,396.258,134.13,391.112,131.129z M396.362,124.037
			c7.12,0.386,14.104,1.786,20.833,4.143C410.059,128.66,402.769,127.221,396.362,124.037z M404.335,113.423
			c7.305-1.039,14.987,0.258,21.558,3.609C418.579,116.457,411.434,115.272,404.335,113.423z M420.472,106.403
			c-4.059-0.287-9.677-0.534-13.693-0.996c9.008-2.097,18.73-1.466,27.401,1.749C430.162,107.1,424.518,106.632,420.472,106.403z
			 M447.046,95.006c-11.745,1.515-24.92,2.72-36.747,3.329C422.157,94.838,434.752,93.708,447.046,95.006z M416.671,84.785
			c16.878-8.986,36.248-13.554,55.361-13.089C453.131,74.116,434.659,78.495,416.671,84.785z M448.626,66.75
			c-9.562,2.208-19.284,3.893-27.968,8.699c7.803-6.272,17.946-8.454,27.474-10.727c9.623-2.16,19.28-4.206,29.051-5.589
			C467.774,62.146,458.227,64.504,448.626,66.75z M434.17,62.553c16.538-12.075,35.891-20.484,55.996-24.363
			C470.854,44.842,452.206,52.967,434.17,62.553z"/>
		<path d="M380.342,88.297c3.87-3.518,2.005-11.146-3.051-12.481c1.577-1.961,3.169-4.066,3.578-6.55
			c0.41-2.483-0.795-5.42-3.221-6.091c4.078-2.732,3.165-10.164-1.453-11.828c3.973-4.451,2.248-12.597-3.188-15.056
			c1.985-2.941,1.681-7.223-0.699-9.855c-0.662-0.732-1.472-1.36-1.908-2.245c-0.451-0.915-0.44-1.984-0.725-2.964
			c-0.524-1.8-1.858-2.974-3.543-3.742c1.119-1.878-0.008-4.543-1.98-5.502c-1.986-0.966-4.436-0.478-6.303,0.701
			c-1.659,1.047-3.603,2.815-4.292,4.733c-1.105,0.873-1.993,2.074-2.819,3.24c-4.856,6.851-9.754,13.777-12.953,21.542
			c-3.706,8.997-4.94,18.728-5.202,28.391c-0.192,7.087,0.07,14.194,0.354,21.287c9.144,3.752,18.289,7.503,27.433,11.255
			c0.646,0.265,1.325,0.535,2.019,0.461c0.616-0.066,1.168-0.396,1.697-0.718c6.244-3.803,12.488-7.606,18.733-11.409
			C382.102,90.329,381.279,89.262,380.342,88.297z M377.567,63.572c-9.513,6.722-18.78,13.541-28.048,20.596
			C356.793,75.006,366.653,67.779,377.567,63.572z M362.762,17.555c0.047,0.012,0.094,0.032,0.141,0.047
			c-9.535,12.096-20.292,23.585-25.326,38.442C339.839,40.299,351.228,27.732,362.762,17.555z M370.024,23.092
			c-14.738,13.749-26.275,30.523-33.872,49.19C340.972,52.59,353.355,34.627,370.024,23.092z M373.231,35.004
			c-14.02,12.841-25.108,28.474-32.621,45.936C345.362,62.411,357.311,45.605,373.231,35.004z M375.945,51.274
			c-11.896,8.651-22.031,19.273-30.144,31.541C351.354,69.072,362.475,57.452,375.945,51.274z M376.885,76.24
			c-10.111,4.114-19.798,8.809-29.56,13.681C355.485,82.619,365.986,77.574,376.885,76.24z M351.17,96.2
			c7.676-6.139,18.075-9.034,27.82-7.777C369.405,90.078,360.228,92.655,351.17,96.2z"/>
	</g>
	<g>
		<g>
			<path d="M274.063,314.28c-16.957-3.048-34.983-1.005-51.766-4.846l-15.006-0.169l-7.976-0.036
				c-1.666,0.092-3.48-0.215-5.03,0.236c-0.256,0.535-0.592,1.082-1.037,1.641c-0.065,0.082-0.141,0.155-0.209,0.234
				c0.716,0.791,3.15,1.246,5.054,1.907c2.531,0.802,5.085,1.525,7.633,2.28c3.32,0.957,6.657,1.868,10.001,2.773
				c0.207-0.075,0.41-0.157,0.607-0.244c1.579-0.693,3.057-1.679,4.748-2.018c1.078-0.216,2.189-0.157,3.287-0.096
				c21.053,1.159,42.673,3.258,63.715,4.614C284.54,316.734,279.195,315.203,274.063,314.28z"/>
			<g>
				<path d="M59.613,416.149c1.107-0.677,1.969-1.683,2.796-2.683c2.609-3.153,5.096-6.465,6.749-10.206
					c-3.688,2.042-7.4,4.042-11.111,6.034c-2.864,1.537-5.748,3.083-8.843,4.076c-2.632,0.845-5.525,1.35-7.556,3.224
					c-0.631,0.583-1.105,1.364-1.385,2.201c5.036-0.099,10.065-0.534,15.039-1.332C56.795,417.223,58.323,416.938,59.613,416.149z"
					/>
			</g>
		</g>
		<g>
			<path style="fill:none;" d="M71.483,432.251c-9.035,6.348-16.772,14.602-22.55,24.01
				C56.834,448.593,64.332,440.624,71.483,432.251z"/>
			<path style="fill:none;" d="M39.1,454.014c5.381-6.633,10.797-13.006,16.449-19.409C48.083,438.889,42.11,445.953,39.1,454.014z"
				/>
			<path style="fill:none;" d="M45.611,441.969c-3.381,1.625-6.276,4.07-8.796,6.815c-2.478,2.782-4.623,5.905-5.908,9.429
				c3.544-3.67,7.565-8.36,11.046-12.103C43.181,444.767,44.42,443.425,45.611,441.969z"/>
			<path style="fill:none;" d="M45.19,465.828c10.701-9.691,22.069-20.693,32.086-31.09C65.102,443.395,54.235,453.94,45.19,465.828
				z"/>
			<path style="fill:none;" d="M128.885,419.155c11.666-9.418,22.47-19.896,32.219-31.288
				C149.431,397.277,138.641,407.77,128.885,419.155z"/>
			<path d="M220.742,309.076c-0.054-0.014-0.109-0.024-0.163-0.038c0.131-1.451-1.188-2.663-2.568-3.13
				c-1.38-0.466-2.881-0.44-4.286-0.824c-2.92-0.798-5.054-3.221-7.105-5.448c-4.372-4.747-9.374-9.236-15.525-11.192
				c-5.434-1.728-11.297-1.331-16.957-0.636c-4.189,0.514-8.4,1.193-12.323,2.749c-6.602,2.618-12.074,7.637-16.067,13.512
				c-3.993,5.874-6.598,12.587-8.572,19.41c-9.26,7.744-18.298,16.255-26.986,24.636c-3.21,3.097-6.384,6.24-9.291,9.623
				c-5.131,5.97-9.387,12.632-13.485,19.353c-7.721,12.663-14.933,25.635-21.641,38.863c13.322-3.401,25.516-11.053,34.195-21.717
				c1.819-2.259,3.486-4.654,5.11-7.092c4.651-7.096,10.101-14.869,14.973-21.896c8.591-11.874,18.251-23.789,31.455-30.695
				c-15.095,9.296-25.242,24.585-34.947,39.03c-5.984,8.413-10.986,17.62-18.035,25.253c-8.861,9.35-20.763,15.791-33.383,18.34
				c-0.047,0.093-0.096,0.184-0.143,0.277c-7.989,4.194-17.632,3.092-26.649,3.425c-1.251,0.046-2.582,0.148-3.586,0.897
				c-1.003,0.749-1.439,2.383-0.546,3.26c0.352,0.345,0.836,0.514,1.305,0.667c6.195,2.016,12.719,3.005,19.233,2.937
				c7.602-0.653,15.145-1.961,22.562-3.773c12.151-3.008,24.182-6.789,35.754-11.558c11.576-4.667,22.621-10.833,31.936-19.189
				c8.458-7.747,18.154-19.576,18.728-31.458c0.148,12.263-9.251,24.39-17.69,32.584c-18.469,17.216-44.268,25.404-68.386,31.121
				c-7.059,1.518-14.255,2.596-21.477,2.999c-11.792,9.979-24.101,20.251-35.479,30.652c-0.525,0.48-1.075,1.002-1.245,1.693
				c-0.383,1.563,1.541,2.892,3.122,2.594c1.581-0.298,2.762-1.582,3.821-2.793c2.624,0.729,5.563-1.015,5.912-3.716
				c3.057,0.723,6.826-1.146,7.3-4.251c1.949,0.69,4.374,0.103,6.087-1.054c1.646-1.112,2.903-2.697,4.081-4.3
				c-0.389,0.393-0.768,0.771-1.133,1.124c4.064-8.068,10.459-15.028,18.172-19.733c-2.483,3.04-6.305,7.047-8.962,9.981
				c-2.338,2.495-5.37,5.882-7.977,8.527c-1.362,2.42-1.679,5.345-1.16,8.076c-2.79,1.889-4.217,5.814-3.089,8.989
				c-1.14,0.279-2.176,2.025-2.634,3.106c-1.159,2.736-1.09,5.966,0.185,8.65c16.219-13.284,32.14-28.142,45.676-44.152
				c0.397,0.642,1.879-0.084,2.632-0.127c0.753-0.044,1.459-0.381,2.099-0.78c1.535-0.959,3.103-2.532,3.971-4.12
				c0.824,1.338,2.737,1.635,4.21,1.09c1.473-0.546,3.068-1.983,4.148-3.124c1.64,1.031,3.818,1.141,5.553,0.281
				c1.342-0.665,2.352-1.954,3.685-2.637c1.291,0.973,2.974,1.41,4.575,1.189c1.609-0.222,3.06-1.062,4.429-1.935
				c1.448-0.924,3.88-2.089,5.25-3.125c-0.061,1.18,1.705,1.315,2.841,0.988c8.355-2.406,16.595-5.196,24.796-8.082
				c7.146-2.515,14.314-5.124,20.848-8.959c6.534-3.834,12.463-8.996,16.123-15.629c3.958-7.173,5.029-15.572,5.311-23.759
				c0.22-6.404,0.017-12.845,0.519-19.221c-2.07,0.857-4.533,0.854-6.534-0.221c-1.236,3.495-5.683,4.738-8.632,2.592
				c-1.968,4.065-7.737,4.601-10.486,1.051c-3.57,3.703-9.973,2.396-11.724-2.537c-3.184,0.734-6.701-1.051-7.868-4.161
				c-1.149-3.232,0.618-6.983,3.71-8.276c-0.377-3.201,2.029-6.419,5.204-6.848c-0.052-2.09,0.918-4.105,2.465-5.363
				c0.033,0.055,0.076,0.105,0.11,0.16c-1.526,1.539-2.242,3.784-1.787,5.832c-1.605,0.13-3.034,1.119-3.879,2.453
				c-0.938,1.427-1.091,3.15-0.487,4.651c0,0-0.648,0.219-0.648,0.219c-2.527,0.835-4.035,4.123-3.059,6.561
				c0.912,2.398,4.195,3.72,6.509,2.668l1.108-0.497l0.232,1.198c0.93,4.483,6.907,5.604,9.399,1.762c0,0,0.977-1.552,0.977-1.552
				l0.727,1.675c1.746,3.759,7.122,3.391,8.384-0.589c0,0,0.448-1.501,0.448-1.501l0.946,1.192c2.551,2.992,7.116,1.436,7.751-2.399
				c1.549,1.448,3.721,2.126,5.908,1.735c0.43-0.072,0.856-0.186,1.273-0.332c0.136-1.599,0.305-3.194,0.554-4.783
				c1.265-8.082,4.653-15.906,10.88-21.208c-4.26-0.801-8.485-1.798-12.669-2.93c-1.926-0.521-3.11-1.15-4.711-2.341
				c-1.1-0.818-2.093-2.163-1.663-3.465c0.533-1.612,2.68-1.848,4.377-1.789C204.891,308.05,212.518,308.741,220.742,309.076z
				 M30.907,458.212c1.285-3.524,3.43-6.647,5.908-9.429c2.52-2.745,5.415-5.19,8.796-6.815c-1.191,1.456-2.429,2.798-3.658,4.14
				C38.472,449.853,34.45,454.542,30.907,458.212z M39.1,454.014c3.01-8.062,8.983-15.125,16.449-19.409
				C49.896,441.008,44.48,447.382,39.1,454.014z M71.483,432.251c-7.15,8.374-14.649,16.342-22.55,24.01
				C54.71,446.853,62.447,438.599,71.483,432.251z M45.19,465.828c9.044-11.888,19.912-22.433,32.086-31.09
				C67.26,445.135,55.891,456.137,45.19,465.828z M128.885,419.155c9.756-11.385,20.546-21.877,32.219-31.288
				C151.355,399.259,140.551,409.736,128.885,419.155z M177.678,308.357c2.747-5.558,10.928-2.555,12.139,2.692
				C184.963,310.704,182.88,308.655,177.678,308.357z"/>
		</g>
	</g>
</g>
</svg>
